<svg width="29" height="28" viewBox="0 0 29 28" fill="none" xmlns="http://www.w3.org/2000/svg">
<path d="M14.0839 27.968C11.3258 27.968 8.62963 27.1508 6.33637 25.6184C4.0431 24.0861 2.25582 21.9078 1.20038 19.3596C0.144948 16.8115 -0.131227 14.0071 0.406925 11.302C0.945077 8.59692 2.27335 6.11257 4.2237 4.16237C6.17404 2.21217 8.65895 0.88392 11.3641 0.345962C14.0692 -0.191996 16.8731 0.0842903 19.4212 1.13991C21.9693 2.19552 24.1471 3.98325 25.6793 6.27663C27.2114 8.57 28.0292 11.2666 28.029 14.0247C28.0245 17.7216 26.5538 21.2651 23.9395 23.8792C21.3253 26.4932 17.7809 27.9638 14.0839 27.968ZM14.0839 1.13502C11.535 1.13502 9.04329 1.89079 6.92389 3.3069C4.80449 4.72301 3.15256 6.73616 2.17707 9.09108C1.20158 11.446 0.946341 14.0374 1.44355 16.5374C1.94075 19.0374 3.16808 21.3335 4.9704 23.136C6.77272 24.9385 9.06907 26.1659 11.569 26.6633C14.069 27.1607 16.6603 26.9062 19.0153 25.9309C21.3703 24.9556 23.3831 23.3031 24.7994 21.1839C26.2157 19.0646 26.9718 16.5736 26.972 14.0247C26.9691 10.6074 25.6103 7.33082 23.194 4.91432C20.7777 2.49783 17.5012 1.1382 14.0839 1.13502Z" fill="white"/>
<path d="M12.04 22.1318H15.306V13.9541H17.585L17.828 11.2148H15.306V9.65625C15.306 9.01025 15.4361 8.75586 16.0601 8.75586H17.828V5.91406H15.566C13.136 5.91406 12.04 6.9842 12.04 9.0332V11.2158H10.34V13.9893H12.04V22.1318Z" fill="white"/>
</svg>
